<svg width="512" height="512" viewBox="0 0 512 512" fill="none" xmlns="http://www.w3.org/2000/svg">
    <defs>
        <linearGradient id="grad" x1="0%" y1="0%" x2="100%" y2="100%">
            <stop offset="0%" style="stop-color:#10b981;stop-opacity:1" />
            <stop offset="100%" style="stop-color:#8b5cf6;stop-opacity:1" />
        </linearGradient>
    </defs>
    <circle cx="256" cy="256" r="240" fill="url(#grad)"/>
    <path d="M403.8,171.22l-47.52,47.52,23.76,23.76-118.8,23.76-23.76,118.8-23.76-23.76-47.52,47.52,23.76,23.76,95.04-95.04,95.04,95.04,23.76-23.76Z" fill="#ffffff" opacity="0.1"/>
    <path d="M256 160a96 96 0 1 0 0 192 96 96 0 1 0 0-192zm0 32a64 64 0 1 1 0 128 64 64 0 1 1 0-128z" fill="white" />
    <path d="M277.33 128l10.67 21.33L310 160l-22 10.67-10.67 21.33-10.67-21.33L244 160l22-10.67L277.33 128zM160 234.67l-21.33 10.66L128 266.67l10.67 21.33L160 298.67l21.33-10.67L192 266.67l-10.67-21.33L160 234.67zM352 298.67l21.33 10.66L384 330.67l-10.67 21.33L352 362.67l-21.33-10.67L320 330.67l10.67-21.33L352 298.67z" fill="white" />
</svg>
